<svg
  width="12"
  height="12"
  viewBox="0 0 12 12"
  fill="none"
  xmlns="http://www.w3.org/2000/svg"
>
  <path
    fill-rule="evenodd"
    clip-rule="evenodd"
    d="M2.4216 0.0160841C1.83472 0.0861774 1.27115 0.357341 0.836514 0.778668C0.385056 1.21634 0.0986108 1.80495 0.0252571 2.44574C-0.00959424 2.75031 -0.00785803 7.0589 0.0272486 7.37442C0.0998109 8.02631 0.411558 8.65638 0.873868 9.08554C1.18636 9.37558 1.64226 9.62932 2.02248 9.72477L2.19393 9.76782L2.20121 10.7093L2.20848 11.6507L2.2862 11.7616C2.43761 11.9776 2.74323 12.063 2.96038 11.9501C3.00881 11.9249 3.75266 11.4338 4.61343 10.8588L6.17842 9.8132H7.86607C9.46302 9.8132 9.56742 9.81041 9.80875 9.76112C10.9745 9.52311 11.8398 8.56869 11.9728 7.37442C12.0079 7.0589 12.0096 2.75031 11.9747 2.44574C11.8736 1.56179 11.3804 0.807294 10.6085 0.35555C10.4164 0.24312 10.1078 0.121301 9.85984 0.0600331C9.63942 0.00559567 9.62073 0.00528873 6.11489 0.000556155C4.17701 -0.00207874 2.51502 0.00490502 2.4216 0.0160841Z"
    fill="#DAE8FA"
  />
</svg>
