<svg
  width="80"
  height="81"
  viewBox="0 0 80 81"
  fill="none"
  xmlns="http://www.w3.org/2000/svg"
>
  <g clip-path="url(#clip0_1_10439)">
    <mask
      id="mask0_1_10439"
      style="mask-type:alpha"
      maskUnits="userSpaceOnUse"
      x="0"
      y="0"
      width="80"
      height="81"
    >
      <circle cx="40" cy="40.338" r="40" fill="#C4C4C4" />
    </mask>
    <g mask="url(#mask0_1_10439)">
      <circle cx="40" cy="40.338" r="40" fill="#E2EEFC" />
      <ellipse
        cx="51.9531"
        cy="40.338"
        rx="41.6406"
        ry="38.5938"
        fill="#EDF5FE"
      />
    </g>
    <path
      fill-rule="evenodd"
      clip-rule="evenodd"
      d="M24.0866 27.8566C21.0419 28.6764 18.7427 31.5128 18.7346 34.4586C18.7313 35.6403 19.7813 36.285 20.6125 35.6119C20.8738 35.4003 20.9996 35.07 21.101 34.3281C21.3499 32.5078 22.2814 31.172 23.8174 30.4326C24.9006 29.9111 26.6169 29.8964 27.7171 30.399C29.2981 31.1215 30.345 32.5936 30.5469 34.3784C30.6574 35.3536 31.0935 35.8969 31.7658 35.8969C32.7131 35.8969 33.1028 34.9711 32.7949 33.4519C31.9783 29.4242 27.9281 26.8219 24.0866 27.8566ZM52.3264 27.899C51.0402 28.2353 50.115 28.7778 49.1038 29.7892C47.9088 30.9842 47.0139 33.0705 47.0139 34.6617C47.0139 35.2344 47.6274 35.8969 48.1577 35.8969C48.8706 35.8969 49.306 35.3726 49.4185 34.3784C49.6203 32.5936 50.6672 31.1215 52.2483 30.399C53.332 29.9039 55.0661 29.9116 56.1133 30.4164C57.666 31.1647 58.6166 32.5164 58.8644 34.3281C58.9658 35.07 59.0916 35.4003 59.3528 35.6119C60.1841 36.285 61.2341 35.6403 61.2308 34.4586C61.2246 32.1889 59.5692 29.5323 57.5113 28.4895C55.78 27.6122 54.1389 27.4253 52.3264 27.899ZM8.6919 39.6078C8.37658 39.9592 6.66205 44.898 6.65486 45.4759C6.64315 46.4081 7.92908 46.9458 8.56502 46.2745C8.93049 45.8886 10.6077 41.0355 10.6077 40.3634C10.6077 40.0659 10.488 39.7433 10.3219 39.593C9.94283 39.2498 9.00549 39.2584 8.6919 39.6078ZM14.1541 39.6128C13.906 39.8872 12.0139 45.1028 12.0139 45.5128C12.0139 45.6284 12.1786 45.9147 12.3799 46.1486C12.8002 46.6373 13.5946 46.727 13.991 46.3305C14.2903 46.0312 16.0764 40.9731 16.0764 40.4248C16.0764 40.2072 15.9669 39.8726 15.8331 39.6817C15.5233 39.2391 14.5291 39.1984 14.1541 39.6128ZM65.9594 39.6076C65.6116 39.9555 63.8889 44.8992 63.8889 45.5497C63.8889 46.5195 65.187 46.9459 65.8277 46.1865C66.0075 45.9734 66.576 44.56 67.0911 43.0456L68.0277 40.2922L67.7005 39.8523C67.2856 39.2944 66.3975 39.1695 65.9594 39.6076ZM71.3594 39.6078C71.0205 40.0034 69.3577 44.8951 69.3577 45.4964C69.3577 46.45 70.5672 46.9525 71.2305 46.2745C71.5699 45.9276 73.3024 41.027 73.3105 40.3911C73.3136 40.1559 73.188 39.8219 73.0314 39.6489C72.6664 39.2456 71.6902 39.2215 71.3594 39.6078ZM24.8975 47.218C24.38 47.7353 24.4106 48.0522 25.1246 49.5756C25.9444 51.3253 26.72 52.4656 28.0296 53.8469C29.4131 55.3064 30.5746 56.2006 32.2313 57.0819C40.5466 61.5053 50.6921 58.0956 54.7067 49.5283C55.411 48.0256 55.3944 47.4242 54.6369 46.999C53.8611 46.5636 53.4392 46.8839 52.5608 48.5756C51.5933 50.4387 51.1831 51.0526 50.1544 52.1783C48.54 53.9447 46.1958 55.3723 43.6214 56.157C42.3936 56.5314 42.0003 56.5756 39.9046 56.5756C37.8091 56.5756 37.4155 56.5314 36.1886 56.1573C31.9124 54.8539 28.6849 51.9928 26.9363 47.9558C26.4385 46.8065 25.6089 46.5064 24.8975 47.218Z"
      fill="#4092F1"
    />
  </g>
  <defs>
    <clipPath id="clip0_1_10439">
      <rect
        width="80"
        height="80"
        fill="white"
        transform="translate(0 0.338013)"
      />
    </clipPath>
  </defs>
</svg>
