<svg
  width="36"
  height="40"
  viewBox="0 0 36 40"
  fill="none"
  xmlns="http://www.w3.org/2000/svg"
>
  <path
    fill-rule="evenodd"
    clip-rule="evenodd"
    d="M7.55398 4.0488C6.20447 4.33354 5.11281 5.31078 4.66047 6.63932L4.5 7.11048V22.0058V36.9012L4.65853 37.3667C5.05603 38.5333 5.94377 39.4355 7.08964 39.8372L7.55398 40H18H28.446L28.9104 39.8372C30.0562 39.4355 30.944 38.5333 31.3415 37.3667L31.5 36.9012V25.2103V13.5194L31.3197 13.0192C31.2205 12.7441 31.0233 12.3417 30.8816 12.125C30.5657 11.6421 23.7484 5.06802 23.1138 4.63426C22.878 4.47312 22.4821 4.26712 22.2339 4.17648L21.7828 4.01168L14.8072 4.00098C10.9706 3.99506 7.70668 4.01661 7.55398 4.0488ZM20.7217 9.38338L20.7416 12.6775L20.9679 13.1437C21.2312 13.6862 21.6076 14.0588 22.1562 14.3198L22.5463 14.5053L25.9994 14.5254L29.4524 14.5456V25.4819C29.4524 37.7651 29.4933 36.8283 28.9337 37.396C28.3758 37.9621 29.2003 37.9224 18 37.9224C6.79965 37.9224 7.62416 37.9621 7.06632 37.396C6.50168 36.8232 6.54756 38.184 6.54756 22.0058C6.54756 5.82462 6.50147 7.18873 7.06757 6.61439C7.60132 6.07274 7.20527 6.10105 14.3361 6.09485L20.7017 6.08929L20.7217 9.38338ZM25.9994 10.1989C27.2495 11.3989 28.2725 12.3912 28.2725 12.4041C28.2725 12.4171 27.0878 12.4277 25.6399 12.4277C23.3392 12.4277 22.9936 12.4138 22.8982 12.3171C22.8032 12.2205 22.7892 11.8817 22.7892 9.66798V7.12957L23.2577 7.57347C23.5154 7.81757 24.7492 8.99906 25.9994 10.1989ZM9.65436 18.2071C9.36132 18.3641 9.11568 18.7796 9.11568 19.1183C9.11568 19.4678 9.36118 19.8735 9.66915 20.033C9.93887 20.1725 10.0626 20.1747 17.7918 20.1747C25.521 20.1747 25.6447 20.1725 25.9144 20.033C26.2224 19.8735 26.4679 19.4678 26.4679 19.1183C26.4679 18.7689 26.2224 18.3631 25.9144 18.2037C25.6445 18.064 25.5241 18.062 17.7772 18.065C10.0854 18.068 9.90819 18.0711 9.65436 18.2071ZM9.65436 23.8413C9.36132 23.9983 9.11568 24.4138 9.11568 24.7525C9.11568 25.102 9.36118 25.5077 9.66915 25.6671C9.93887 25.8067 10.0626 25.8089 17.7918 25.8089C25.521 25.8089 25.6447 25.8067 25.9144 25.6671C26.2224 25.5077 26.4679 25.102 26.4679 24.7525C26.4679 24.403 26.2224 23.9973 25.9144 23.8379C25.6445 23.6982 25.5241 23.6962 17.7772 23.6992C10.0854 23.7022 9.90819 23.7053 9.65436 23.8413ZM9.65436 29.4743C9.36139 29.6326 9.11568 30.0488 9.11568 30.3867C9.11568 30.7385 9.36111 31.1419 9.67352 31.3036C9.94241 31.4427 10.0474 31.447 12.7563 31.4277C15.4645 31.4086 15.5673 31.4029 15.7523 31.2627C16.0963 31.0019 16.2221 30.7675 16.2221 30.3867C16.2221 30.0059 16.0963 29.7714 15.7523 29.5107C15.5669 29.3703 15.468 29.365 12.7373 29.3498C10.0348 29.3347 9.90278 29.34 9.65436 29.4743Z"
    fill="#4092F1"
  />
</svg>
