<svg
  width="16"
  height="16"
  viewBox="0 0 16 16"
  fill="none"
  xmlns="http://www.w3.org/2000/svg"
>
  <path
    d="M5.02303 9.97545L5.51069 9.51244L5.73435 9.79606C4.9366 8.86591 4.52444 7.59691 4.75047 6.24819C5.06291 4.40117 6.60521 2.92622 8.46661 2.70032C11.2787 2.35484 13.6453 4.72008 13.2996 7.53047C13.0736 9.39078 11.5977 10.9322 9.74965 11.2444C8.40013 11.4703 7.13039 11.0584 6.1997 10.2611L6.48541 10.486L6.0202 10.972L3.19487 13.7957C2.92231 14.0681 2.4769 14.0681 2.20434 13.7957C1.93178 13.5233 1.93178 13.0782 2.20434 12.8058L5.02303 9.97545ZM9.01174 9.97545C10.667 9.97545 12.0033 8.64001 12.0033 6.98567C12.0033 5.33133 10.667 3.99589 9.01174 3.99589C7.35642 3.99589 6.0202 5.33133 6.0202 6.98567C6.0202 8.64001 7.35642 9.97545 9.01174 9.97545Z"
    fill="#6A727B"
  />
  <path
    d="M9.33325 5.66669C9.33325 5.48259 9.18401 5.33335 8.99992 5.33335C8.81582 5.33335 8.66658 5.48259 8.66658 5.66669V8.33335C8.66658 8.51745 8.81582 8.66669 8.99992 8.66669C9.18401 8.66669 9.33325 8.51745 9.33325 8.33335V5.66669Z"
    fill="#6A727B"
  />
  <path
    d="M10.3333 7.33335C10.5173 7.33335 10.6666 7.18412 10.6666 7.00002C10.6666 6.81593 10.5173 6.66669 10.3333 6.66669H7.66658C7.48249 6.66669 7.33325 6.81593 7.33325 7.00002C7.33325 7.18412 7.48249 7.33335 7.66658 7.33335H10.3333Z"
    fill="#6A727B"
  />
</svg>
